# xmcd CD database file
#
# Track frame offsets:
#	150
#	46505
#	74079
#	99857
#	137642
#	183364
#	230180
#	251002
#
# Disc length: 4011 seconds
#
# Revision: 0
# Processed by: cddbd v1.5.1PL0 Copyright (c) Steve Scherf et al.
# Submitted via: CDex 1.50
#
DISCID=6b0fa908
DTITLE=Yusef Lateef - Earth and Sky
DYEAR=1997
DGENRE=Jazz
TTITLE0=Earth and Sky
TTITLE1=Doohrehtorb
TTITLE2=What's the Color of Our Actions
TTITLE3=Precious Moments
TTITLE4=Lufhturt
TTITLE5=Noitulba
TTITLE6=Doohrehtorb No. 2
TTITLE7=Noissapmuc
EXTD=YEAR: 1997
EXTT0=
EXTT1=
EXTT2=
EXTT3=
EXTT4=
EXTT5=
EXTT6=
EXTT7=
PLAYORDER=
